<?xml version="1.0" standalone="no"?>
<!DOCTYPE svg PUBLIC "-//W3C//DTD SVG 20010904//EN"
 "http://www.w3.org/TR/2001/REC-SVG-20010904/DTD/svg10.dtd">
<svg version="1.0" xmlns="http://www.w3.org/2000/svg"
 width="64.000000pt" height="64.000000pt" viewBox="0 0 64.000000 64.000000"
 preserveAspectRatio="xMidYMid meet">

<g transform="translate(0.000000,64.000000) scale(0.100000,-0.100000)"
fill="#000000" stroke="none">
<path d="M240 610 c-24 -28 -60 -40 -60 -20 0 6 -13 10 -30 10 -16 0 -30 -4
-30 -10 0 -5 -7 -10 -16 -10 -8 0 -22 -6 -30 -14 -8 -8 -14 -22 -14 -30 0 -9
-4 -16 -10 -16 -5 0 -10 -13 -10 -30 0 -16 5 -30 10 -30 20 0 9 -33 -20 -60
-26 -24 -30 -35 -30 -80 0 -45 4 -56 30 -80 29 -27 40 -60 20 -60 -5 0 -10
-13 -10 -30 0 -16 5 -30 10 -30 6 0 10 -7 10 -16 0 -20 24 -44 44 -44 9 0 16
-4 16 -10 0 -5 14 -10 30 -10 17 0 30 5 30 10 0 20 33 9 60 -20 24 -26 35 -30
80 -30 45 0 56 4 80 30 27 29 60 40 60 20 0 -5 14 -10 30 -10 17 0 30 5 30 10
0 6 7 10 16 10 20 0 44 24 44 44 0 9 5 16 10 16 6 0 10 14 10 30 0 17 -4 30
-10 30 -20 0 -9 33 20 60 26 24 30 35 30 80 0 45 -4 56 -30 80 -29 27 -40 60
-20 60 6 0 10 14 10 30 0 17 -4 30 -10 30 -5 0 -10 7 -10 16 0 20 -24 44 -44
44 -9 0 -16 5 -16 10 0 6 -13 10 -30 10 -16 0 -30 -4 -30 -10 0 -20 -33 -9
-60 20 -24 26 -35 30 -82 30 -46 -1 -56 -4 -78 -30z m120 -60 c23 -25 36 -30
74 -30 25 0 46 5 46 10 0 15 29 12 46 -4 16 -17 19 -46 4 -46 -5 0 -10 -21
-10 -46 0 -38 5 -51 30 -74 37 -35 37 -45 0 -80 -25 -23 -30 -36 -30 -74 0
-25 5 -46 10 -46 15 0 12 -29 -4 -46 -17 -16 -46 -19 -46 -4 0 6 -21 10 -46
10 -38 0 -51 -5 -74 -30 -15 -16 -33 -30 -40 -30 -7 0 -25 13 -40 30 -23 25
-36 30 -74 30 -25 0 -46 -4 -46 -10 0 -15 -29 -12 -46 4 -16 17 -19 46 -4 46
6 0 10 21 10 46 0 38 -5 51 -30 74 -16 15 -30 33 -30 40 0 7 14 25 30 40 25
23 30 36 30 74 0 25 -4 46 -10 46 -15 0 -12 29 4 46 17 16 46 19 46 4 0 -5 21
-10 48 -10 40 1 51 5 72 30 32 37 45 37 80 0z"/>
<path d="M290 400 c0 -5 -9 -10 -20 -10 -13 0 -20 -7 -20 -20 0 -11 -4 -20
-10 -20 -5 0 -10 -13 -10 -30 0 -16 5 -30 10 -30 6 0 10 -9 10 -20 0 -13 7
-20 20 -20 11 0 20 -4 20 -10 0 -5 14 -10 30 -10 17 0 30 5 30 10 0 6 9 10 20
10 13 0 20 7 20 20 0 11 5 20 10 20 6 0 10 14 10 30 0 17 -4 30 -10 30 -5 0
-10 9 -10 20 0 13 -7 20 -20 20 -11 0 -20 5 -20 10 0 6 -13 10 -30 10 -16 0
-30 -4 -30 -10z m60 -80 c0 -27 -3 -30 -30 -30 -27 0 -30 3 -30 30 0 27 3 30
30 30 27 0 30 -3 30 -30z"/>
</g>
</svg>
