<?xml version="1.0" standalone="no"?>
<!DOCTYPE svg PUBLIC "-//W3C//DTD SVG 20010904//EN"
 "http://www.w3.org/TR/2001/REC-SVG-20010904/DTD/svg10.dtd">
<svg version="1.0" xmlns="http://www.w3.org/2000/svg"
 width="64.000000pt" height="64.000000pt" viewBox="0 0 64.000000 64.000000"
 preserveAspectRatio="xMidYMid meet">

<g transform="translate(0.000000,64.000000) scale(0.100000,-0.100000)"
fill="#000000" stroke="none">
<path d="M60 610 c0 -27 -3 -30 -30 -30 l-30 0 0 -260 0 -260 30 0 c27 0 30
-3 30 -30 l0 -30 260 0 260 0 0 30 c0 27 3 30 30 30 l30 0 0 260 0 260 -30 0
c-27 0 -30 3 -30 30 l0 30 -260 0 -260 0 0 -30z m520 -290 l0 -260 -260 0
-260 0 0 260 0 260 260 0 260 0 0 -260z"/>
<path d="M290 435 l0 -85 -85 0 -85 0 0 -30 0 -30 85 0 85 0 0 -85 0 -85 30 0
30 0 0 85 0 85 85 0 85 0 0 30 0 30 -85 0 -85 0 0 85 0 85 -30 0 -30 0 0 -85z"/>
</g>
</svg>
