<?xml version="1.0" standalone="no"?>
<!DOCTYPE svg PUBLIC "-//W3C//DTD SVG 20010904//EN"
 "http://www.w3.org/TR/2001/REC-SVG-20010904/DTD/svg10.dtd">
<svg version="1.0" xmlns="http://www.w3.org/2000/svg"
 width="64.000000pt" height="64.000000pt" viewBox="0 0 64.000000 64.000000"
 preserveAspectRatio="xMidYMid meet">

<g transform="translate(0.000000,64.000000) scale(0.100000,-0.100000)"
fill="#000000" stroke="none">
<path d="M160 580 l0 -60 -80 0 -80 0 0 -30 c0 -29 1 -30 50 -30 l50 0 0 -230
0 -230 220 0 220 0 0 230 0 230 50 0 c49 0 50 1 50 30 l0 30 -80 0 -80 0 0 60
0 60 -160 0 -160 0 0 -60z m260 -30 l0 -30 -100 0 -100 0 0 30 0 30 100 0 100
0 0 -30z m60 -290 l0 -200 -160 0 -160 0 0 200 0 200 160 0 160 0 0 -200z"/>
<path d="M220 260 l0 -140 30 0 30 0 0 140 0 140 -30 0 -30 0 0 -140z"/>
<path d="M360 260 l0 -140 30 0 30 0 0 140 0 140 -30 0 -30 0 0 -140z"/>
</g>
</svg>
