<?xml version="1.0" standalone="no"?>
<!DOCTYPE svg PUBLIC "-//W3C//DTD SVG 20010904//EN"
 "http://www.w3.org/TR/2001/REC-SVG-20010904/DTD/svg10.dtd">
<svg version="1.0" xmlns="http://www.w3.org/2000/svg"
 width="64.000000pt" height="64.000000pt" viewBox="0 0 64.000000 64.000000"
 preserveAspectRatio="xMidYMid meet">

<g transform="translate(0.000000,64.000000) scale(0.100000,-0.100000)"
fill="#000000" stroke="none">
<path d="M460 620 c0 -13 -7 -20 -20 -20 -13 0 -20 -7 -20 -20 0 -13 -7 -20
-19 -20 -11 0 -21 -6 -24 -12 -3 -9 -11 -6 -24 10 -12 12 -32 22 -47 22 -21 0
-26 -5 -26 -26 0 -15 10 -35 23 -47 15 -13 18 -21 10 -24 -7 -3 -13 -13 -13
-24 0 -12 -7 -19 -20 -19 -13 0 -20 -7 -20 -20 0 -13 -7 -20 -20 -20 -13 0
-20 -7 -20 -20 0 -13 -7 -20 -20 -20 -13 0 -20 -7 -20 -20 0 -13 -7 -20 -20
-20 -13 0 -20 -7 -20 -20 0 -13 -7 -20 -20 -20 -13 0 -20 -7 -20 -20 0 -13 -7
-20 -20 -20 -16 0 -20 -7 -20 -30 0 -23 -4 -30 -20 -30 -16 0 -20 -7 -20 -30
0 -16 -4 -30 -10 -30 -6 0 -10 -27 -10 -60 l0 -60 60 0 c33 0 60 4 60 10 0 6
14 10 30 10 23 0 30 4 30 20 0 16 7 20 30 20 23 0 30 4 30 20 0 13 7 20 20 20
13 0 20 7 20 20 0 13 7 20 20 20 13 0 20 7 20 20 0 13 7 20 20 20 13 0 20 7
20 20 0 13 7 20 20 20 13 0 20 7 20 20 0 13 7 20 20 20 13 0 20 7 20 20 0 13
7 20 19 20 11 0 21 6 24 13 3 8 11 5 24 -10 12 -13 32 -23 47 -23 21 0 26 5
26 26 0 15 -10 35 -22 47 -16 13 -19 21 -10 24 6 3 12 13 12 24 0 12 7 19 20
19 13 0 20 7 20 20 0 13 7 20 20 20 18 0 20 7 20 60 0 47 -3 60 -15 60 -8 0
-15 7 -15 15 0 8 -7 15 -15 15 -8 0 -15 7 -15 15 0 12 -13 15 -60 15 -53 0
-60 -2 -60 -20z m90 -55 c0 -8 7 -15 15 -15 10 0 15 -11 15 -35 0 -28 -4 -35
-20 -35 -13 0 -20 -7 -20 -20 0 -13 -7 -20 -19 -20 -11 0 -21 -5 -23 -12 -3
-7 -20 4 -43 27 -23 23 -34 40 -27 43 7 2 12 12 12 23 0 12 7 19 20 19 13 0
20 7 20 20 0 16 7 20 35 20 24 0 35 -5 35 -15z m-143 -162 c23 -22 32 -38 25
-41 -7 -2 -12 -12 -12 -23 0 -12 -7 -19 -20 -19 -13 0 -20 -7 -20 -20 0 -13
-7 -20 -20 -20 -13 0 -20 -7 -20 -20 0 -13 -7 -20 -20 -20 -13 0 -20 -7 -20
-20 0 -13 -7 -20 -20 -20 -13 0 -20 -7 -20 -20 0 -13 -7 -20 -20 -20 -13 0
-20 -7 -20 -20 0 -13 -7 -20 -20 -20 -13 0 -20 -7 -20 -20 0 -16 -7 -20 -30
-20 -16 0 -30 -4 -30 -10 0 -5 -13 -10 -30 -10 -27 0 -30 3 -30 30 0 17 5 30
10 30 6 0 10 14 10 30 0 23 4 30 20 30 13 0 20 7 20 20 0 13 7 20 20 20 13 0
20 7 20 20 0 13 7 20 20 20 13 0 20 7 20 20 0 13 7 20 20 20 13 0 20 7 20 20
0 13 7 20 20 20 13 0 20 7 20 20 0 13 7 20 20 20 13 0 20 7 20 20 0 13 7 20
20 20 11 0 20 5 20 10 0 17 9 12 47 -27z"/>
</g>
</svg>
